<?xml version="1.0" encoding="utf-8"?>
<!-- Generator: Adobe Illustrator 23.1.0, SVG Export Plug-In . SVG Version: 6.00 Build 0)  -->
<svg version="1.1" id="Layer_3" xmlns="http://www.w3.org/2000/svg" xmlns:xlink="http://www.w3.org/1999/xlink" x="0px" y="0px"
	 viewBox="0 0 48 48" style="enable-background:new 0 0 48 48;" xml:space="preserve">
<style type="text/css">
	.st0{fill:none;stroke:#000000;stroke-width:2;stroke-miterlimit:10;}
	.st1{stroke:#000000;stroke-width:2;stroke-miterlimit:10;}
</style>
<g>
	<path class="st0" d="M31,6.2c1.7,1.7,9,9,10.6,10.6c0.2,0.2,0.2,0.5,0,0.7c-1.4,1.4-3.4,3.1-5.3,2.5l-9.2,9.2
		c1.8,5.3-1.4,9.6-2.5,10.9c-0.2,0.2-0.5,0.2-0.7,0L7.7,23.9c-0.2-0.2-0.2-0.6,0-0.7c1.3-1.1,5.6-4.2,10.9-2.5l9.2-9.2
		c-0.7-2,1.1-3.9,2.5-5.3C30.5,6,30.8,6,31,6.2z"/>
	<path class="st1" d="M15.2,31.6c0,0-6.9,6.9-8.4,8.4c-1.3,1.3,0.2,2.7,1.4,1.4c1.6-1.6,8.4-8.4,8.4-8.4L15.2,31.6z"/>
</g>
</svg>
