<svg id="Layer_3" data-name="Layer 3" xmlns="http://www.w3.org/2000/svg" viewBox="0 0 25.95 44.4"><defs><style>.cls-1{fill:none;}.cls-1,.cls-2{stroke:#000;stroke-miterlimit:10;stroke-width:2px;}</style></defs><title>pinned</title><path class="cls-1" d="M14.5,4h15a.48.48,0,0,1,.48.49c0,2-.16,4.59-2,5.51V23c5,2.49,5.83,7.75,6,9.46a.49.49,0,0,1-.5.54H10.53a.51.51,0,0,1-.5-.55c.14-1.71,1-7,6-9.45V10c-1.84-.92-2-3.53-2-5.5A.5.5,0,0,1,14.5,4Z" transform="translate(-9.03 -3)"/><path class="cls-2" d="M21.29,33.17V45c0,1.83,2,1.78,2,0V33.17Z" transform="translate(-9.03 -3)"/></svg>